solid vcg
  facet normal  0.000000e+00  1.000000e+00  0.000000e+00
    outer loop
      vertex   3.865014e+01  2.390441e+01  2.000000e+00
      vertex   1.165013e+01  2.390441e+01  2.000000e+00
      vertex   1.165013e+01  2.390441e+01  1.800000e+01
    endloop
  endfacet
  facet normal  0.000000e+00  1.000000e+00 -0.000000e+00
    outer loop
      vertex   3.865014e+01  2.390441e+01  2.000000e+00
      vertex   1.165013e+01  2.390441e+01  1.800000e+01
      vertex   3.865014e+01  2.390441e+01  1.800000e+01
    endloop
  endfacet
  facet normal -1.000000e+00  0.000000e+00  0.000000e+00
    outer loop
      vertex   1.165013e+01  2.390441e+01  1.800000e+01
      vertex   1.165013e+01  1.592695e+01  1.146946e+01
      vertex   1.165013e+01  1.549797e+01  1.192628e+01
    endloop
  endfacet
  facet normal -1.000000e+00  0.000000e+00  0.000000e+00
    outer loop
      vertex   1.165013e+01  2.390441e+01  1.800000e+01
      vertex   1.165013e+01  1.622885e+01  1.092031e+01
      vertex   1.165013e+01  1.592695e+01  1.146946e+01
    endloop
  endfacet
  facet normal -1.000000e+00  0.000000e+00  0.000000e+00
    outer loop
      vertex   1.165013e+01  1.638470e+01  1.031333e+01
      vertex   1.165013e+01  1.622885e+01  1.092031e+01
      vertex   1.165013e+01  2.390441e+01  1.800000e+01
    endloop
  endfacet
  facet normal -1.000000e+00 -0.000000e+00  0.000000e+00
    outer loop
      vertex   1.165013e+01  1.374743e+01  7.504933e+00
      vertex   1.165013e+01  5.904409e+00 -4.440892e-16
      vertex   1.165013e+01  1.313187e+01  7.622359e+00
    endloop
  endfacet
  facet normal -1.000000e+00  0.000000e+00  0.000000e+00
    outer loop
      vertex   1.165013e+01  3.972557e+00  1.851764e+01
      vertex   1.165013e+01  4.172358e+00  1.900000e+01
      vertex   1.165013e+01  4.490195e+00  1.941421e+01
    endloop
  endfacet
  facet normal -1.000000e+00  0.000000e+00  0.000000e+00
    outer loop
      vertex   1.165013e+01  1.638470e+01  9.686666e+00
      vertex   1.165013e+01  1.638470e+01  1.031333e+01
      vertex   1.165013e+01  2.390441e+01  1.800000e+01
    endloop
  endfacet
  facet normal -1.000000e+00  0.000000e+00  0.000000e+00
    outer loop
      vertex   1.165013e+01  3.904409e+00  1.800000e+01
      vertex   1.165013e+01  3.972557e+00  1.851764e+01
      vertex   1.165013e+01  4.490195e+00  1.941421e+01
    endloop
  endfacet
  facet normal -1.000000e+00  0.000000e+00  0.000000e+00
    outer loop
      vertex   1.165013e+01  5.904409e+00  2.000000e+01
      vertex   1.165013e+01  4.904409e+00  1.973205e+01
      vertex   1.165013e+01  5.386771e+00  1.993185e+01
    endloop
  endfacet
  facet normal -1.000000e+00  0.000000e+00  0.000000e+00
    outer loop
      vertex   1.165013e+01  5.904409e+00  2.000000e+01
      vertex   1.165013e+01  4.490195e+00  1.941421e+01
      vertex   1.165013e+01  4.904409e+00  1.973205e+01
    endloop
  endfacet
  facet normal -1.000000e+00  0.000000e+00  0.000000e+00
    outer loop
      vertex   1.165013e+01  5.904409e+00  2.000000e+01
      vertex   1.165013e+01  3.904409e+00  1.800000e+01
      vertex   1.165013e+01  4.490195e+00  1.941421e+01
    endloop
  endfacet
  facet normal -1.000000e+00  0.000000e+00  0.000000e+00
    outer loop
      vertex   1.165013e+01  1.208199e+01  1.171137e+01
      vertex   1.165013e+01  3.904409e+00  1.800000e+01
      vertex   1.165013e+01  5.904409e+00  2.000000e+01
    endloop
  endfacet
  facet normal -1.000000e+00 -0.000000e+00  0.000000e+00
    outer loop
      vertex   1.165013e+01  1.256484e+01  1.211082e+01
      vertex   1.165013e+01  1.208199e+01  1.171137e+01
      vertex   1.165013e+01  5.904409e+00  2.000000e+01
    endloop
  endfacet
  facet normal -1.000000e+00  0.000000e+00  0.000000e+00
    outer loop
      vertex   1.165013e+01  1.171364e+01  1.120438e+01
      vertex   1.165013e+01  3.904409e+00  1.800000e+01
      vertex   1.165013e+01  1.208199e+01  1.171137e+01
    endloop
  endfacet
  facet normal -1.000000e+00  0.000000e+00  0.000000e+00
    outer loop
      vertex   1.165013e+01  2.190441e+01 -4.440892e-16
      vertex   1.165013e+01  5.904409e+00 -4.440892e-16
      vertex   1.165013e+01  1.374743e+01  7.504933e+00
    endloop
  endfacet
  facet normal -1.000000e+00 -0.000000e+00  0.000000e+00
    outer loop
      vertex   1.165013e+01  1.313187e+01  1.237764e+01
      vertex   1.165013e+01  1.256484e+01  1.211082e+01
      vertex   1.165013e+01  5.904409e+00  2.000000e+01
    endloop
  endfacet
  facet normal -1.000000e+00  0.000000e+00  0.000000e+00
    outer loop
      vertex   1.165013e+01  2.190441e+01 -4.440892e-16
      vertex   1.165013e+01  1.496886e+01  7.737932e+00
      vertex   1.165013e+01  1.549797e+01  8.073717e+00
    endloop
  endfacet
  facet normal -1.000000e+00  0.000000e+00  0.000000e+00
    outer loop
      vertex   1.165013e+01  2.190441e+01 -4.440892e-16
      vertex   1.165013e+01  1.437286e+01  7.544282e+00
      vertex   1.165013e+01  1.496886e+01  7.737932e+00
    endloop
  endfacet
  facet normal -1.000000e+00  0.000000e+00  0.000000e+00
    outer loop
      vertex   1.165013e+01  2.190441e+01 -4.440892e-16
      vertex   1.165013e+01  1.374743e+01  7.504933e+00
      vertex   1.165013e+01  1.437286e+01  7.544282e+00
    endloop
  endfacet
  facet normal -1.000000e+00  0.000000e+00  0.000000e+00
    outer loop
      vertex   1.165013e+01  1.148295e+01  1.062173e+01
      vertex   1.165013e+01  3.904409e+00  1.800000e+01
      vertex   1.165013e+01  1.171364e+01  1.120438e+01
    endloop
  endfacet
  facet normal -1.000000e+00  0.000000e+00  0.000000e+00
    outer loop
      vertex   1.165013e+01  2.390441e+01  2.000000e+00
      vertex   1.165013e+01  1.638470e+01  9.686666e+00
      vertex   1.165013e+01  2.390441e+01  1.800000e+01
    endloop
  endfacet
  facet normal -1.000000e+00 -0.000000e+00  0.000000e+00
    outer loop
      vertex   1.165013e+01  2.390441e+01  2.000000e+00
      vertex   1.165013e+01  2.190441e+01 -4.440892e-16
      vertex   1.165013e+01  1.549797e+01  8.073717e+00
    endloop
  endfacet
  facet normal -1.000000e+00 -0.000000e+00  0.000000e+00
    outer loop
      vertex   1.165013e+01  1.374743e+01  1.249507e+01
      vertex   1.165013e+01  1.313187e+01  1.237764e+01
      vertex   1.165013e+01  5.904409e+00  2.000000e+01
    endloop
  endfacet
  facet normal -1.000000e+00  0.000000e+00  0.000000e+00
    outer loop
      vertex   1.165013e+01  2.390441e+01  2.000000e+00
      vertex   1.165013e+01  1.622885e+01  9.079689e+00
      vertex   1.165013e+01  1.638470e+01  9.686666e+00
    endloop
  endfacet
  facet normal -1.000000e+00  0.000000e+00  0.000000e+00
    outer loop
      vertex   1.165013e+01  2.390441e+01  2.000000e+00
      vertex   1.165013e+01  1.592695e+01  8.530537e+00
      vertex   1.165013e+01  1.622885e+01  9.079689e+00
    endloop
  endfacet
  facet normal -1.000000e+00  0.000000e+00  0.000000e+00
    outer loop
      vertex   1.165013e+01  2.390441e+01  2.000000e+00
      vertex   1.165013e+01  1.549797e+01  8.073717e+00
      vertex   1.165013e+01  1.592695e+01  8.530537e+00
    endloop
  endfacet
  facet normal -1.000000e+00  0.000000e+00  0.000000e+00
    outer loop
      vertex   1.165013e+01  1.140441e+01  1.000000e+01
      vertex   1.165013e+01  3.904409e+00  1.800000e+01
      vertex   1.165013e+01  1.148295e+01  1.062173e+01
    endloop
  endfacet
  facet normal -1.000000e+00  0.000000e+00  0.000000e+00
    outer loop
      vertex   1.165013e+01  3.904409e+00  2.000000e+00
      vertex   1.165013e+01  3.904409e+00  1.800000e+01
      vertex   1.165013e+01  1.140441e+01  1.000000e+01
    endloop
  endfacet
  facet normal -1.000000e+00  0.000000e+00  0.000000e+00
    outer loop
      vertex   1.165013e+01  2.290441e+01  2.679492e-01
      vertex   1.165013e+01  2.242205e+01  6.814834e-02
      vertex   1.165013e+01  2.190441e+01 -4.440892e-16
    endloop
  endfacet
  facet normal -1.000000e+00 -0.000000e+00  0.000000e+00
    outer loop
      vertex   1.165013e+01  2.290441e+01  2.679492e-01
      vertex   1.165013e+01  2.190441e+01 -4.440892e-16
      vertex   1.165013e+01  2.390441e+01  2.000000e+00
    endloop
  endfacet
  facet normal -1.000000e+00 -0.000000e+00  0.000000e+00
    outer loop
      vertex   1.165013e+01  2.190441e+01  2.000000e+01
      vertex   1.165013e+01  1.374743e+01  1.249507e+01
      vertex   1.165013e+01  5.904409e+00  2.000000e+01
    endloop
  endfacet
  facet normal -1.000000e+00  0.000000e+00  0.000000e+00
    outer loop
      vertex   1.165013e+01  2.363646e+01  1.000000e+00
      vertex   1.165013e+01  2.390441e+01  2.000000e+00
      vertex   1.165013e+01  2.383626e+01  1.482362e+00
    endloop
  endfacet
  facet normal -1.000000e+00 -0.000000e+00  0.000000e+00
    outer loop
      vertex   1.165013e+01  2.363646e+01  1.000000e+00
      vertex   1.165013e+01  2.290441e+01  2.679492e-01
      vertex   1.165013e+01  2.390441e+01  2.000000e+00
    endloop
  endfacet
  facet normal -1.000000e+00  0.000000e+00  0.000000e+00
    outer loop
      vertex   1.165013e+01  1.437286e+01  1.245572e+01
      vertex   1.165013e+01  1.374743e+01  1.249507e+01
      vertex   1.165013e+01  2.190441e+01  2.000000e+01
    endloop
  endfacet
  facet normal -1.000000e+00 -0.000000e+00  0.000000e+00
    outer loop
      vertex   1.165013e+01  2.331862e+01  5.857865e-01
      vertex   1.165013e+01  2.290441e+01  2.679492e-01
      vertex   1.165013e+01  2.363646e+01  1.000000e+00
    endloop
  endfacet
  facet normal -1.000000e+00 -0.000000e+00  0.000000e+00
    outer loop
      vertex   1.165013e+01  1.148295e+01  9.378275e+00
      vertex   1.165013e+01  3.904409e+00  2.000000e+00
      vertex   1.165013e+01  1.140441e+01  1.000000e+01
    endloop
  endfacet
  facet normal -1.000000e+00  0.000000e+00  0.000000e+00
    outer loop
      vertex   1.165013e+01  1.496886e+01  1.226207e+01
      vertex   1.165013e+01  1.437286e+01  1.245572e+01
      vertex   1.165013e+01  2.190441e+01  2.000000e+01
    endloop
  endfacet
  facet normal -1.000000e+00 -0.000000e+00  0.000000e+00
    outer loop
      vertex   1.165013e+01  1.171364e+01  8.795616e+00
      vertex   1.165013e+01  3.904409e+00  2.000000e+00
      vertex   1.165013e+01  1.148295e+01  9.378275e+00
    endloop
  endfacet
  facet normal -1.000000e+00  0.000000e+00  0.000000e+00
    outer loop
      vertex   1.165013e+01  2.290441e+01  1.973205e+01
      vertex   1.165013e+01  2.190441e+01  2.000000e+01
      vertex   1.165013e+01  2.242205e+01  1.993185e+01
    endloop
  endfacet
  facet normal -1.000000e+00  0.000000e+00  0.000000e+00
    outer loop
      vertex   1.165013e+01  1.549797e+01  1.192628e+01
      vertex   1.165013e+01  1.496886e+01  1.226207e+01
      vertex   1.165013e+01  2.190441e+01  2.000000e+01
    endloop
  endfacet
  facet normal -1.000000e+00 -0.000000e+00  0.000000e+00
    outer loop
      vertex   1.165013e+01  1.208199e+01  8.288632e+00
      vertex   1.165013e+01  3.904409e+00  2.000000e+00
      vertex   1.165013e+01  1.171364e+01  8.795616e+00
    endloop
  endfacet
  facet normal -1.000000e+00  0.000000e+00  0.000000e+00
    outer loop
      vertex   1.165013e+01  2.331862e+01  1.941421e+01
      vertex   1.165013e+01  2.190441e+01  2.000000e+01
      vertex   1.165013e+01  2.290441e+01  1.973205e+01
    endloop
  endfacet
  facet normal -1.000000e+00  0.000000e+00  0.000000e+00
    outer loop
      vertex   1.165013e+01  4.904409e+00  2.679492e-01
      vertex   1.165013e+01  4.490195e+00  5.857865e-01
      vertex   1.165013e+01  4.172358e+00  1.000000e+00
    endloop
  endfacet
  facet normal -1.000000e+00  0.000000e+00  0.000000e+00
    outer loop
      vertex   1.165013e+01  4.904409e+00  2.679492e-01
      vertex   1.165013e+01  4.172358e+00  1.000000e+00
      vertex   1.165013e+01  3.972557e+00  1.482362e+00
    endloop
  endfacet
  facet normal -1.000000e+00  0.000000e+00  0.000000e+00
    outer loop
      vertex   1.165013e+01  4.904409e+00  2.679492e-01
      vertex   1.165013e+01  3.972557e+00  1.482362e+00
      vertex   1.165013e+01  3.904409e+00  2.000000e+00
    endloop
  endfacet
  facet normal -1.000000e+00  0.000000e+00  0.000000e+00
    outer loop
      vertex   1.165013e+01  2.363646e+01  1.900000e+01
      vertex   1.165013e+01  2.190441e+01  2.000000e+01
      vertex   1.165013e+01  2.331862e+01  1.941421e+01
    endloop
  endfacet
  facet normal -1.000000e+00  0.000000e+00  0.000000e+00
    outer loop
      vertex   1.165013e+01  5.904409e+00 -4.440892e-16
      vertex   1.165013e+01  5.386771e+00  6.814834e-02
      vertex   1.165013e+01  4.904409e+00  2.679492e-01
    endloop
  endfacet
  facet normal -1.000000e+00  0.000000e+00  0.000000e+00
    outer loop
      vertex   1.165013e+01  5.904409e+00 -4.440892e-16
      vertex   1.165013e+01  3.904409e+00  2.000000e+00
      vertex   1.165013e+01  1.208199e+01  8.288632e+00
    endloop
  endfacet
  facet normal -1.000000e+00  0.000000e+00  0.000000e+00
    outer loop
      vertex   1.165013e+01  5.904409e+00 -4.440892e-16
      vertex   1.165013e+01  1.256484e+01  7.889180e+00
      vertex   1.165013e+01  1.313187e+01  7.622359e+00
    endloop
  endfacet
  facet normal -1.000000e+00  0.000000e+00  0.000000e+00
    outer loop
      vertex   1.165013e+01  5.904409e+00 -4.440892e-16
      vertex   1.165013e+01  1.208199e+01  8.288632e+00
      vertex   1.165013e+01  1.256484e+01  7.889180e+00
    endloop
  endfacet
  facet normal -1.000000e+00  0.000000e+00  0.000000e+00
    outer loop
      vertex   1.165013e+01  5.904409e+00 -4.440892e-16
      vertex   1.165013e+01  4.904409e+00  2.679492e-01
      vertex   1.165013e+01  3.904409e+00  2.000000e+00
    endloop
  endfacet
  facet normal -1.000000e+00  0.000000e+00  0.000000e+00
    outer loop
      vertex   1.165013e+01  2.390441e+01  1.800000e+01
      vertex   1.165013e+01  2.190441e+01  2.000000e+01
      vertex   1.165013e+01  2.363646e+01  1.900000e+01
    endloop
  endfacet
  facet normal -1.000000e+00 -0.000000e+00  0.000000e+00
    outer loop
      vertex   1.165013e+01  2.390441e+01  1.800000e+01
      vertex   1.165013e+01  1.549797e+01  1.192628e+01
      vertex   1.165013e+01  2.190441e+01  2.000000e+01
    endloop
  endfacet
  facet normal -1.000000e+00  0.000000e+00  0.000000e+00
    outer loop
      vertex   1.165013e+01  2.390441e+01  1.800000e+01
      vertex   1.165013e+01  2.363646e+01  1.900000e+01
      vertex   1.165013e+01  2.383626e+01  1.851764e+01
    endloop
  endfacet
  facet normal  0.000000e+00  9.914446e-01 -1.305285e-01
    outer loop
      vertex   1.165013e+01  2.383626e+01  1.482362e+00
      vertex   1.165013e+01  2.390441e+01  2.000000e+00
      vertex   3.865014e+01  2.383626e+01  1.482362e+00
    endloop
  endfacet
  facet normal  0.000000e+00  9.238798e-01 -3.826829e-01
    outer loop
      vertex   1.165013e+01  2.363646e+01  1.000000e+00
      vertex   1.165013e+01  2.383626e+01  1.482362e+00
      vertex   3.865014e+01  2.383626e+01  1.482362e+00
    endloop
  endfacet
  facet normal  0.000000e+00  9.914446e-01 -1.305285e-01
    outer loop
      vertex   1.165013e+01  2.390441e+01  2.000000e+00
      vertex   3.865014e+01  2.390441e+01  2.000000e+00
      vertex   3.865014e+01  2.383626e+01  1.482362e+00
    endloop
  endfacet
  facet normal  0.000000e+00  7.933538e-01 -6.087609e-01
    outer loop
      vertex   1.165013e+01  2.331862e+01  5.857865e-01
      vertex   1.165013e+01  2.363646e+01  1.000000e+00
      vertex   3.865014e+01  2.363646e+01  1.000000e+00
    endloop
  endfacet
  facet normal  0.000000e+00  9.238798e-01 -3.826829e-01
    outer loop
      vertex   1.165013e+01  2.363646e+01  1.000000e+00
      vertex   3.865014e+01  2.383626e+01  1.482362e+00
      vertex   3.865014e+01  2.363646e+01  1.000000e+00
    endloop
  endfacet
  facet normal  0.000000e+00  6.087618e-01 -7.933530e-01
    outer loop
      vertex   1.165013e+01  2.290441e+01  2.679492e-01
      vertex   1.165013e+01  2.331862e+01  5.857865e-01
      vertex   3.865014e+01  2.331862e+01  5.857865e-01
    endloop
  endfacet
  facet normal  0.000000e+00  7.933538e-01 -6.087609e-01
    outer loop
      vertex   1.165013e+01  2.331862e+01  5.857865e-01
      vertex   3.865014e+01  2.363646e+01  1.000000e+00
      vertex   3.865014e+01  2.331862e+01  5.857865e-01
    endloop
  endfacet
  facet normal  0.000000e+00  3.826829e-01 -9.238798e-01
    outer loop
      vertex   1.165013e+01  2.242205e+01  6.814834e-02
      vertex   1.165013e+01  2.290441e+01  2.679492e-01
      vertex   3.865014e+01  2.290441e+01  2.679492e-01
    endloop
  endfacet
  facet normal  0.000000e+00  6.087618e-01 -7.933530e-01
    outer loop
      vertex   1.165013e+01  2.290441e+01  2.679492e-01
      vertex   3.865014e+01  2.331862e+01  5.857865e-01
      vertex   3.865014e+01  2.290441e+01  2.679492e-01
    endloop
  endfacet
  facet normal  0.000000e+00  1.305264e-01 -9.914448e-01
    outer loop
      vertex   1.165013e+01  2.190441e+01 -4.440892e-16
      vertex   1.165013e+01  2.242205e+01  6.814834e-02
      vertex   3.865014e+01  2.242205e+01  6.814834e-02
    endloop
  endfacet
  facet normal  0.000000e+00  3.826829e-01 -9.238798e-01
    outer loop
      vertex   1.165013e+01  2.242205e+01  6.814834e-02
      vertex   3.865014e+01  2.290441e+01  2.679492e-01
      vertex   3.865014e+01  2.242205e+01  6.814834e-02
    endloop
  endfacet
  facet normal  0.000000e+00  1.305264e-01 -9.914448e-01
    outer loop
      vertex   1.165013e+01  2.190441e+01 -4.440892e-16
      vertex   3.865014e+01  2.242205e+01  6.814834e-02
      vertex   3.865014e+01  2.190441e+01 -4.440892e-16
    endloop
  endfacet
  facet normal  0.000000e+00  9.914445e-01  1.305287e-01
    outer loop
      vertex   3.865014e+01  2.383626e+01  1.851764e+01
      vertex   1.165013e+01  2.390441e+01  1.800000e+01
      vertex   1.165013e+01  2.383626e+01  1.851764e+01
    endloop
  endfacet
  facet normal  0.000000e+00  9.914445e-01  1.305287e-01
    outer loop
      vertex   3.865014e+01  2.383626e+01  1.851764e+01
      vertex   3.865014e+01  2.390441e+01  1.800000e+01
      vertex   1.165013e+01  2.390441e+01  1.800000e+01
    endloop
  endfacet
  facet normal  0.000000e+00  9.238800e-01  3.826823e-01
    outer loop
      vertex   3.865014e+01  2.363646e+01  1.900000e+01
      vertex   1.165013e+01  2.383626e+01  1.851764e+01
      vertex   1.165013e+01  2.363646e+01  1.900000e+01
    endloop
  endfacet
  facet normal  0.000000e+00  7.933536e-01  6.087613e-01
    outer loop
      vertex   3.865014e+01  2.363646e+01  1.900000e+01
      vertex   1.165013e+01  2.363646e+01  1.900000e+01
      vertex   1.165013e+01  2.331862e+01  1.941421e+01
    endloop
  endfacet
  facet normal  0.000000e+00  9.238800e-01  3.826823e-01
    outer loop
      vertex   3.865014e+01  2.363646e+01  1.900000e+01
      vertex   3.865014e+01  2.383626e+01  1.851764e+01
      vertex   1.165013e+01  2.383626e+01  1.851764e+01
    endloop
  endfacet
  facet normal  0.000000e+00  7.933536e-01  6.087613e-01
    outer loop
      vertex   3.865014e+01  2.331862e+01  1.941421e+01
      vertex   3.865014e+01  2.363646e+01  1.900000e+01
      vertex   1.165013e+01  2.331862e+01  1.941421e+01
    endloop
  endfacet
  facet normal  0.000000e+00  6.087613e-01  7.933536e-01
    outer loop
      vertex   3.865014e+01  2.290441e+01  1.973205e+01
      vertex   1.165013e+01  2.331862e+01  1.941421e+01
      vertex   1.165013e+01  2.290441e+01  1.973205e+01
    endloop
  endfacet
  facet normal  0.000000e+00  3.826854e-01  9.238787e-01
    outer loop
      vertex   3.865014e+01  2.290441e+01  1.973205e+01
      vertex   1.165013e+01  2.290441e+01  1.973205e+01
      vertex   1.165013e+01  2.242205e+01  1.993185e+01
    endloop
  endfacet
  facet normal  0.000000e+00  6.087613e-01  7.933536e-01
    outer loop
      vertex   3.865014e+01  2.290441e+01  1.973205e+01
      vertex   3.865014e+01  2.331862e+01  1.941421e+01
      vertex   1.165013e+01  2.331862e+01  1.941421e+01
    endloop
  endfacet
  facet normal  0.000000e+00  3.826854e-01  9.238787e-01
    outer loop
      vertex   3.865014e+01  2.242205e+01  1.993185e+01
      vertex   3.865014e+01  2.290441e+01  1.973205e+01
      vertex   1.165013e+01  2.242205e+01  1.993185e+01
    endloop
  endfacet
  facet normal  0.000000e+00  1.305251e-01  9.914450e-01
    outer loop
      vertex   3.865014e+01  2.190441e+01  2.000000e+01
      vertex   1.165013e+01  2.242205e+01  1.993185e+01
      vertex   1.165013e+01  2.190441e+01  2.000000e+01
    endloop
  endfacet
  facet normal  0.000000e+00  1.305251e-01  9.914450e-01
    outer loop
      vertex   3.865014e+01  2.190441e+01  2.000000e+01
      vertex   3.865014e+01  2.242205e+01  1.993185e+01
      vertex   1.165013e+01  2.242205e+01  1.993185e+01
    endloop
  endfacet
  facet normal  1.000000e+00  0.000000e+00  0.000000e+00
    outer loop
      vertex   3.865014e+01  2.390441e+01  1.800000e+01
      vertex   3.865014e+01  2.383626e+01  1.851764e+01
      vertex   3.865014e+01  2.363646e+01  1.900000e+01
    endloop
  endfacet
  facet normal  1.000000e+00  0.000000e+00  0.000000e+00
    outer loop
      vertex   3.865014e+01  2.390441e+01  1.800000e+01
      vertex   3.865014e+01  2.363646e+01  1.900000e+01
      vertex   3.865014e+01  2.331862e+01  1.941421e+01
    endloop
  endfacet
  facet normal  1.000000e+00  0.000000e+00  0.000000e+00
    outer loop
      vertex   3.865014e+01  2.190441e+01  2.000000e+01
      vertex   3.865014e+01  2.331862e+01  1.941421e+01
      vertex   3.865014e+01  2.290441e+01  1.973205e+01
    endloop
  endfacet
  facet normal  1.000000e+00  0.000000e+00  0.000000e+00
    outer loop
      vertex   3.865014e+01  2.190441e+01  2.000000e+01
      vertex   3.865014e+01  2.290441e+01  1.973205e+01
      vertex   3.865014e+01  2.242205e+01  1.993185e+01
    endloop
  endfacet
  facet normal  1.000000e+00  0.000000e+00  0.000000e+00
    outer loop
      vertex   3.865014e+01  2.190441e+01  2.000000e+01
      vertex   3.865014e+01  2.390441e+01  1.800000e+01
      vertex   3.865014e+01  2.331862e+01  1.941421e+01
    endloop
  endfacet
  facet normal  1.000000e+00  0.000000e+00  0.000000e+00
    outer loop
      vertex   3.865014e+01  1.140441e+01  1.775000e+01
      vertex   3.865014e+01  2.390441e+01  1.800000e+01
      vertex   3.865014e+01  2.190441e+01  2.000000e+01
    endloop
  endfacet
  facet normal  1.000000e+00 -0.000000e+00  0.000000e+00
    outer loop
      vertex   3.865014e+01  5.904409e+00  2.000000e+01
      vertex   3.865014e+01  1.140441e+01  1.775000e+01
      vertex   3.865014e+01  2.190441e+01  2.000000e+01
    endloop
  endfacet
  facet normal  1.000000e+00  0.000000e+00 -0.000000e+00
    outer loop
      vertex   3.865014e+01  5.904409e+00  1.775000e+01
      vertex   3.865014e+01  5.904409e+00  2.000000e+01
      vertex   3.865014e+01  5.386771e+00  1.993185e+01
    endloop
  endfacet
  facet normal  1.000000e+00  0.000000e+00  0.000000e+00
    outer loop
      vertex   3.865014e+01  5.904409e+00  1.775000e+01
      vertex   3.865014e+01  5.386771e+00  1.993185e+01
      vertex   3.865014e+01  4.904409e+00  1.973205e+01
    endloop
  endfacet
  facet normal  1.000000e+00  0.000000e+00  0.000000e+00
    outer loop
      vertex   3.865014e+01  5.904409e+00  1.775000e+01
      vertex   3.865014e+01  4.904409e+00  1.973205e+01
      vertex   3.865014e+01  4.490195e+00  1.941421e+01
    endloop
  endfacet
  facet normal  1.000000e+00  0.000000e+00  0.000000e+00
    outer loop
      vertex   3.865014e+01  5.904409e+00  1.775000e+01
      vertex   3.865014e+01  1.140441e+01  1.775000e+01
      vertex   3.865014e+01  5.904409e+00  2.000000e+01
    endloop
  endfacet
  facet normal  1.000000e+00 -0.000000e+00  0.000000e+00
    outer loop
      vertex   3.865014e+01  4.172358e+00  1.900000e+01
      vertex   3.865014e+01  5.904409e+00  1.775000e+01
      vertex   3.865014e+01  4.490195e+00  1.941421e+01
    endloop
  endfacet
  facet normal  1.000000e+00  0.000000e+00  0.000000e+00
    outer loop
      vertex   3.865014e+01  2.290441e+01  2.679492e-01
      vertex   3.865014e+01  2.383626e+01  1.482362e+00
      vertex   3.865014e+01  2.390441e+01  2.000000e+00
    endloop
  endfacet
  facet normal  1.000000e+00  0.000000e+00  0.000000e+00
    outer loop
      vertex   3.865014e+01  2.290441e+01  2.679492e-01
      vertex   3.865014e+01  2.363646e+01  1.000000e+00
      vertex   3.865014e+01  2.383626e+01  1.482362e+00
    endloop
  endfacet
  facet normal  1.000000e+00  0.000000e+00  0.000000e+00
    outer loop
      vertex   3.865014e+01  2.290441e+01  2.679492e-01
      vertex   3.865014e+01  2.331862e+01  5.857865e-01
      vertex   3.865014e+01  2.363646e+01  1.000000e+00
    endloop
  endfacet
  facet normal  1.000000e+00 -0.000000e+00  0.000000e+00
    outer loop
      vertex   3.865014e+01  3.972557e+00  1.851764e+01
      vertex   3.865014e+01  5.904409e+00  1.775000e+01
      vertex   3.865014e+01  4.172358e+00  1.900000e+01
    endloop
  endfacet
  facet normal  1.000000e+00  0.000000e+00  0.000000e+00
    outer loop
      vertex   3.865014e+01  2.190441e+01 -4.440892e-16
      vertex   3.865014e+01  2.242205e+01  6.814834e-02
      vertex   3.865014e+01  2.290441e+01  2.679492e-01
    endloop
  endfacet
  facet normal  1.000000e+00  0.000000e+00  0.000000e+00
    outer loop
      vertex   3.865014e+01  2.190441e+01 -4.440892e-16
      vertex   3.865014e+01  2.290441e+01  2.679492e-01
      vertex   3.865014e+01  2.390441e+01  2.000000e+00
    endloop
  endfacet
  facet normal  1.000000e+00 -0.000000e+00  0.000000e+00
    outer loop
      vertex   3.865014e+01  3.904409e+00  1.800000e+01
      vertex   3.865014e+01  5.904409e+00  1.775000e+01
      vertex   3.865014e+01  3.972557e+00  1.851764e+01
    endloop
  endfacet
  facet normal  1.000000e+00 -0.000000e+00  0.000000e+00
    outer loop
      vertex   3.865014e+01  1.140441e+01  2.250000e+00
      vertex   3.865014e+01  2.390441e+01  2.000000e+00
      vertex   3.865014e+01  2.390441e+01  1.800000e+01
    endloop
  endfacet
  facet normal  1.000000e+00  0.000000e+00  0.000000e+00
    outer loop
      vertex   3.865014e+01  1.140441e+01  2.250000e+00
      vertex   3.865014e+01  2.390441e+01  1.800000e+01
      vertex   3.865014e+01  1.140441e+01  1.775000e+01
    endloop
  endfacet
  facet normal  1.000000e+00  0.000000e+00  0.000000e+00
    outer loop
      vertex   3.865014e+01  1.140441e+01  2.250000e+00
      vertex   3.865014e+01  2.190441e+01 -4.440892e-16
      vertex   3.865014e+01  2.390441e+01  2.000000e+00
    endloop
  endfacet
  facet normal  1.000000e+00  0.000000e+00  0.000000e+00
    outer loop
      vertex   3.865014e+01  3.904409e+00  2.000000e+00
      vertex   3.865014e+01  5.904409e+00  2.250000e+00
      vertex   3.865014e+01  5.904409e+00  1.775000e+01
    endloop
  endfacet
  facet normal  1.000000e+00  0.000000e+00  0.000000e+00
    outer loop
      vertex   3.865014e+01  3.904409e+00  2.000000e+00
      vertex   3.865014e+01  5.904409e+00  1.775000e+01
      vertex   3.865014e+01  3.904409e+00  1.800000e+01
    endloop
  endfacet
  facet normal  1.000000e+00  0.000000e+00  0.000000e+00
    outer loop
      vertex   3.865014e+01  5.904409e+00 -4.440892e-16
      vertex   3.865014e+01  1.140441e+01  2.250000e+00
      vertex   3.865014e+01  5.904409e+00  2.250000e+00
    endloop
  endfacet
  facet normal  1.000000e+00  0.000000e+00 -0.000000e+00
    outer loop
      vertex   3.865014e+01  3.972557e+00  1.482362e+00
      vertex   3.865014e+01  5.904409e+00  2.250000e+00
      vertex   3.865014e+01  3.904409e+00  2.000000e+00
    endloop
  endfacet
  facet normal  1.000000e+00 -0.000000e+00  0.000000e+00
    outer loop
      vertex   3.865014e+01  5.386771e+00  6.814834e-02
      vertex   3.865014e+01  5.904409e+00 -4.440892e-16
      vertex   3.865014e+01  5.904409e+00  2.250000e+00
    endloop
  endfacet
  facet normal  1.000000e+00  0.000000e+00 -0.000000e+00
    outer loop
      vertex   3.865014e+01  4.172358e+00  1.000000e+00
      vertex   3.865014e+01  5.904409e+00  2.250000e+00
      vertex   3.865014e+01  3.972557e+00  1.482362e+00
    endloop
  endfacet
  facet normal  1.000000e+00 -0.000000e+00  0.000000e+00
    outer loop
      vertex   3.865014e+01  4.904409e+00  2.679492e-01
      vertex   3.865014e+01  5.386771e+00  6.814834e-02
      vertex   3.865014e+01  5.904409e+00  2.250000e+00
    endloop
  endfacet
  facet normal  1.000000e+00  0.000000e+00 -0.000000e+00
    outer loop
      vertex   3.865014e+01  4.490195e+00  5.857865e-01
      vertex   3.865014e+01  5.904409e+00  2.250000e+00
      vertex   3.865014e+01  4.172358e+00  1.000000e+00
    endloop
  endfacet
  facet normal  1.000000e+00 -0.000000e+00  0.000000e+00
    outer loop
      vertex   3.865014e+01  4.490195e+00  5.857865e-01
      vertex   3.865014e+01  4.904409e+00  2.679492e-01
      vertex   3.865014e+01  5.904409e+00  2.250000e+00
    endloop
  endfacet
  facet normal  1.000000e+00  0.000000e+00  0.000000e+00
    outer loop
      vertex   3.865014e+01  5.904409e+00 -4.440892e-16
      vertex   3.865014e+01  2.190441e+01 -4.440892e-16
      vertex   3.865014e+01  1.140441e+01  2.250000e+00
    endloop
  endfacet
  facet normal  0.000000e+00 -1.000000e+00  0.000000e+00
    outer loop
      vertex   1.165013e+01  3.904409e+00  2.000000e+00
      vertex   3.865014e+01  3.904409e+00  2.000000e+00
      vertex   3.865014e+01  3.904409e+00  1.800000e+01
    endloop
  endfacet
  facet normal  0.000000e+00 -1.000000e+00  0.000000e+00
    outer loop
      vertex   1.165013e+01  3.904409e+00  2.000000e+00
      vertex   3.865014e+01  3.904409e+00  1.800000e+01
      vertex   1.165013e+01  3.904409e+00  1.800000e+01
    endloop
  endfacet
  facet normal  0.000000e+00 -1.305262e-01 -9.914448e-01
    outer loop
      vertex   1.165013e+01  5.386771e+00  6.814834e-02
      vertex   3.865014e+01  5.904409e+00 -4.440892e-16
      vertex   3.865014e+01  5.386771e+00  6.814834e-02
    endloop
  endfacet
  facet normal  0.000000e+00 -1.305262e-01 -9.914448e-01
    outer loop
      vertex   1.165013e+01  5.386771e+00  6.814834e-02
      vertex   1.165013e+01  5.904409e+00 -4.440892e-16
      vertex   3.865014e+01  5.904409e+00 -4.440892e-16
    endloop
  endfacet
  facet normal  0.000000e+00 -3.826835e-01 -9.238794e-01
    outer loop
      vertex   1.165013e+01  4.904409e+00  2.679492e-01
      vertex   3.865014e+01  5.386771e+00  6.814834e-02
      vertex   3.865014e+01  4.904409e+00  2.679492e-01
    endloop
  endfacet
  facet normal  0.000000e+00 -6.087614e-01 -7.933534e-01
    outer loop
      vertex   1.165013e+01  4.904409e+00  2.679492e-01
      vertex   3.865014e+01  4.904409e+00  2.679492e-01
      vertex   3.865014e+01  4.490195e+00  5.857865e-01
    endloop
  endfacet
  facet normal  0.000000e+00 -3.826835e-01 -9.238794e-01
    outer loop
      vertex   1.165013e+01  4.904409e+00  2.679492e-01
      vertex   1.165013e+01  5.386771e+00  6.814834e-02
      vertex   3.865014e+01  5.386771e+00  6.814834e-02
    endloop
  endfacet
  facet normal  0.000000e+00 -6.087614e-01 -7.933534e-01
    outer loop
      vertex   1.165013e+01  4.490195e+00  5.857865e-01
      vertex   1.165013e+01  4.904409e+00  2.679492e-01
      vertex   3.865014e+01  4.490195e+00  5.857865e-01
    endloop
  endfacet
  facet normal  0.000000e+00 -7.933534e-01 -6.087615e-01
    outer loop
      vertex   1.165013e+01  4.172358e+00  1.000000e+00
      vertex   3.865014e+01  4.490195e+00  5.857865e-01
      vertex   3.865014e+01  4.172358e+00  1.000000e+00
    endloop
  endfacet
  facet normal  0.000000e+00 -9.238796e-01 -3.826832e-01
    outer loop
      vertex   1.165013e+01  4.172358e+00  1.000000e+00
      vertex   3.865014e+01  4.172358e+00  1.000000e+00
      vertex   3.865014e+01  3.972557e+00  1.482362e+00
    endloop
  endfacet
  facet normal  0.000000e+00 -7.933534e-01 -6.087615e-01
    outer loop
      vertex   1.165013e+01  4.172358e+00  1.000000e+00
      vertex   1.165013e+01  4.490195e+00  5.857865e-01
      vertex   3.865014e+01  4.490195e+00  5.857865e-01
    endloop
  endfacet
  facet normal  0.000000e+00 -9.238796e-01 -3.826832e-01
    outer loop
      vertex   1.165013e+01  3.972557e+00  1.482362e+00
      vertex   1.165013e+01  4.172358e+00  1.000000e+00
      vertex   3.865014e+01  3.972557e+00  1.482362e+00
    endloop
  endfacet
  facet normal  0.000000e+00 -9.914449e-01 -1.305262e-01
    outer loop
      vertex   1.165013e+01  3.904409e+00  2.000000e+00
      vertex   3.865014e+01  3.972557e+00  1.482362e+00
      vertex   3.865014e+01  3.904409e+00  2.000000e+00
    endloop
  endfacet
  facet normal  0.000000e+00 -9.914449e-01 -1.305262e-01
    outer loop
      vertex   1.165013e+01  3.904409e+00  2.000000e+00
      vertex   1.165013e+01  3.972557e+00  1.482362e+00
      vertex   3.865014e+01  3.972557e+00  1.482362e+00
    endloop
  endfacet
  facet normal  0.000000e+00 -1.305249e-01  9.914449e-01
    outer loop
      vertex   3.865014e+01  5.386771e+00  1.993185e+01
      vertex   3.865014e+01  5.904409e+00  2.000000e+01
      vertex   1.165013e+01  5.904409e+00  2.000000e+01
    endloop
  endfacet
  facet normal  0.000000e+00 -1.305249e-01  9.914449e-01
    outer loop
      vertex   3.865014e+01  5.386771e+00  1.993185e+01
      vertex   1.165013e+01  5.904409e+00  2.000000e+01
      vertex   1.165013e+01  5.386771e+00  1.993185e+01
    endloop
  endfacet
  facet normal  0.000000e+00 -3.826860e-01  9.238784e-01
    outer loop
      vertex   3.865014e+01  4.904409e+00  1.973205e+01
      vertex   3.865014e+01  5.386771e+00  1.993185e+01
      vertex   1.165013e+01  4.904409e+00  1.973205e+01
    endloop
  endfacet
  facet normal  0.000000e+00 -6.087608e-01  7.933539e-01
    outer loop
      vertex   3.865014e+01  4.490195e+00  1.941421e+01
      vertex   3.865014e+01  4.904409e+00  1.973205e+01
      vertex   1.165013e+01  4.904409e+00  1.973205e+01
    endloop
  endfacet
  facet normal  0.000000e+00 -3.826860e-01  9.238784e-01
    outer loop
      vertex   3.865014e+01  5.386771e+00  1.993185e+01
      vertex   1.165013e+01  5.386771e+00  1.993185e+01
      vertex   1.165013e+01  4.904409e+00  1.973205e+01
    endloop
  endfacet
  facet normal  0.000000e+00 -6.087608e-01  7.933539e-01
    outer loop
      vertex   3.865014e+01  4.490195e+00  1.941421e+01
      vertex   1.165013e+01  4.904409e+00  1.973205e+01
      vertex   1.165013e+01  4.490195e+00  1.941421e+01
    endloop
  endfacet
  facet normal  0.000000e+00 -7.933531e-01  6.087618e-01
    outer loop
      vertex   3.865014e+01  4.172358e+00  1.900000e+01
      vertex   3.865014e+01  4.490195e+00  1.941421e+01
      vertex   1.165013e+01  4.172358e+00  1.900000e+01
    endloop
  endfacet
  facet normal  0.000000e+00 -7.933531e-01  6.087618e-01
    outer loop
      vertex   3.865014e+01  4.490195e+00  1.941421e+01
      vertex   1.165013e+01  4.490195e+00  1.941421e+01
      vertex   1.165013e+01  4.172358e+00  1.900000e+01
    endloop
  endfacet
  facet normal  0.000000e+00 -9.238799e-01  3.826827e-01
    outer loop
      vertex   3.865014e+01  3.972557e+00  1.851764e+01
      vertex   3.865014e+01  4.172358e+00  1.900000e+01
      vertex   1.165013e+01  3.972557e+00  1.851764e+01
    endloop
  endfacet
  facet normal  0.000000e+00 -9.914448e-01  1.305265e-01
    outer loop
      vertex   3.865014e+01  3.904409e+00  1.800000e+01
      vertex   3.865014e+01  3.972557e+00  1.851764e+01
      vertex   1.165013e+01  3.972557e+00  1.851764e+01
    endloop
  endfacet
  facet normal  0.000000e+00 -9.238799e-01  3.826827e-01
    outer loop
      vertex   3.865014e+01  4.172358e+00  1.900000e+01
      vertex   1.165013e+01  4.172358e+00  1.900000e+01
      vertex   1.165013e+01  3.972557e+00  1.851764e+01
    endloop
  endfacet
  facet normal  0.000000e+00 -9.914448e-01  1.305265e-01
    outer loop
      vertex   3.865014e+01  3.904409e+00  1.800000e+01
      vertex   1.165013e+01  3.972557e+00  1.851764e+01
      vertex   1.165013e+01  3.904409e+00  1.800000e+01
    endloop
  endfacet
  facet normal  0.000000e+00  0.000000e+00 -1.000000e+00
    outer loop
      vertex   1.165013e+01  5.904409e+00 -4.440892e-16
      vertex   1.165013e+01  2.190441e+01 -4.440892e-16
      vertex   3.865014e+01  5.904409e+00 -4.440892e-16
    endloop
  endfacet
  facet normal  0.000000e+00  0.000000e+00 -1.000000e+00
    outer loop
      vertex   3.865014e+01  5.904409e+00 -4.440892e-16
      vertex   1.165013e+01  2.190441e+01 -4.440892e-16
      vertex   3.865014e+01  2.190441e+01 -4.440892e-16
    endloop
  endfacet
  facet normal  0.000000e+00  0.000000e+00  1.000000e+00
    outer loop
      vertex   3.865014e+01  5.904409e+00  2.000000e+01
      vertex   1.165013e+01  2.190441e+01  2.000000e+01
      vertex   1.165013e+01  5.904409e+00  2.000000e+01
    endloop
  endfacet
  facet normal  0.000000e+00  0.000000e+00  1.000000e+00
    outer loop
      vertex   3.865014e+01  2.190441e+01  2.000000e+01
      vertex   1.165013e+01  2.190441e+01  2.000000e+01
      vertex   3.865014e+01  5.904409e+00  2.000000e+01
    endloop
  endfacet
  facet normal  0.000000e+00  1.873812e-01  9.822873e-01
    outer loop
      vertex   1.865013e+01  1.374743e+01  7.504933e+00
      vertex   1.165013e+01  1.374743e+01  7.504933e+00
      vertex   1.165013e+01  1.313187e+01  7.622359e+00
    endloop
  endfacet
  facet normal  0.000000e+00  1.873812e-01  9.822873e-01
    outer loop
      vertex   1.865013e+01  1.313187e+01  7.622359e+00
      vertex   1.865013e+01  1.374743e+01  7.504933e+00
      vertex   1.165013e+01  1.313187e+01  7.622359e+00
    endloop
  endfacet
  facet normal  0.000000e+00  9.921148e-01 -1.253326e-01
    outer loop
      vertex   1.865013e+01  1.148295e+01  1.062173e+01
      vertex   1.865013e+01  1.140441e+01  1.000000e+01
      vertex   1.165013e+01  1.140441e+01  1.000000e+01
    endloop
  endfacet
  facet normal  0.000000e+00  4.257793e-01  9.048271e-01
    outer loop
      vertex   1.865013e+01  1.313187e+01  7.622359e+00
      vertex   1.165013e+01  1.313187e+01  7.622359e+00
      vertex   1.165013e+01  1.256484e+01  7.889180e+00
    endloop
  endfacet
  facet normal  0.000000e+00  4.257793e-01  9.048271e-01
    outer loop
      vertex   1.865013e+01  1.256484e+01  7.889180e+00
      vertex   1.865013e+01  1.313187e+01  7.622359e+00
      vertex   1.165013e+01  1.256484e+01  7.889180e+00
    endloop
  endfacet
  facet normal  0.000000e+00  9.297765e-01 -3.681246e-01
    outer loop
      vertex   1.865013e+01  1.171364e+01  1.120438e+01
      vertex   1.865013e+01  1.148295e+01  1.062173e+01
      vertex   1.165013e+01  1.148295e+01  1.062173e+01
    endloop
  endfacet
  facet normal  0.000000e+00  9.921148e-01 -1.253326e-01
    outer loop
      vertex   1.865013e+01  1.148295e+01  1.062173e+01
      vertex   1.165013e+01  1.140441e+01  1.000000e+01
      vertex   1.165013e+01  1.148295e+01  1.062173e+01
    endloop
  endfacet
  facet normal  0.000000e+00  6.374239e-01  7.705133e-01
    outer loop
      vertex   1.865013e+01  1.256484e+01  7.889180e+00
      vertex   1.165013e+01  1.256484e+01  7.889180e+00
      vertex   1.165013e+01  1.208199e+01  8.288632e+00
    endloop
  endfacet
  facet normal  0.000000e+00  6.374239e-01  7.705133e-01
    outer loop
      vertex   1.865013e+01  1.208199e+01  8.288632e+00
      vertex   1.865013e+01  1.256484e+01  7.889180e+00
      vertex   1.165013e+01  1.208199e+01  8.288632e+00
    endloop
  endfacet
  facet normal  0.000000e+00  9.297765e-01 -3.681246e-01
    outer loop
      vertex   1.865013e+01  1.171364e+01  1.120438e+01
      vertex   1.165013e+01  1.148295e+01  1.062173e+01
      vertex   1.165013e+01  1.171364e+01  1.120438e+01
    endloop
  endfacet
  facet normal  0.000000e+00  8.090169e-01  5.877852e-01
    outer loop
      vertex   1.865013e+01  1.171364e+01  8.795616e+00
      vertex   1.865013e+01  1.208199e+01  8.288632e+00
      vertex   1.165013e+01  1.171364e+01  8.795616e+00
    endloop
  endfacet
  facet normal  0.000000e+00  8.090169e-01  5.877852e-01
    outer loop
      vertex   1.865013e+01  1.208199e+01  8.288632e+00
      vertex   1.165013e+01  1.208199e+01  8.288632e+00
      vertex   1.165013e+01  1.171364e+01  8.795616e+00
    endloop
  endfacet
  facet normal  0.000000e+00  9.297765e-01  3.681246e-01
    outer loop
      vertex   1.865013e+01  1.148295e+01  9.378275e+00
      vertex   1.865013e+01  1.171364e+01  8.795616e+00
      vertex   1.165013e+01  1.171364e+01  8.795616e+00
    endloop
  endfacet
  facet normal  0.000000e+00  8.090169e-01 -5.877852e-01
    outer loop
      vertex   1.865013e+01  1.208199e+01  1.171137e+01
      vertex   1.865013e+01  1.171364e+01  1.120438e+01
      vertex   1.165013e+01  1.208199e+01  1.171137e+01
    endloop
  endfacet
  facet normal  0.000000e+00  8.090169e-01 -5.877852e-01
    outer loop
      vertex   1.865013e+01  1.171364e+01  1.120438e+01
      vertex   1.165013e+01  1.171364e+01  1.120438e+01
      vertex   1.165013e+01  1.208199e+01  1.171137e+01
    endloop
  endfacet
  facet normal  0.000000e+00  9.921148e-01  1.253326e-01
    outer loop
      vertex   1.865013e+01  1.140441e+01  1.000000e+01
      vertex   1.865013e+01  1.148295e+01  9.378275e+00
      vertex   1.165013e+01  1.148295e+01  9.378275e+00
    endloop
  endfacet
  facet normal  0.000000e+00  9.297765e-01  3.681246e-01
    outer loop
      vertex   1.865013e+01  1.148295e+01  9.378275e+00
      vertex   1.165013e+01  1.171364e+01  8.795616e+00
      vertex   1.165013e+01  1.148295e+01  9.378275e+00
    endloop
  endfacet
  facet normal  0.000000e+00  6.374239e-01 -7.705133e-01
    outer loop
      vertex   1.865013e+01  1.256484e+01  1.211082e+01
      vertex   1.865013e+01  1.208199e+01  1.171137e+01
      vertex   1.165013e+01  1.256484e+01  1.211082e+01
    endloop
  endfacet
  facet normal  0.000000e+00  9.921148e-01  1.253326e-01
    outer loop
      vertex   1.865013e+01  1.140441e+01  1.000000e+01
      vertex   1.165013e+01  1.148295e+01  9.378275e+00
      vertex   1.165013e+01  1.140441e+01  1.000000e+01
    endloop
  endfacet
  facet normal  0.000000e+00  6.374239e-01 -7.705133e-01
    outer loop
      vertex   1.865013e+01  1.208199e+01  1.171137e+01
      vertex   1.165013e+01  1.208199e+01  1.171137e+01
      vertex   1.165013e+01  1.256484e+01  1.211082e+01
    endloop
  endfacet
  facet normal  0.000000e+00  4.257800e-01 -9.048268e-01
    outer loop
      vertex   1.865013e+01  1.313187e+01  1.237764e+01
      vertex   1.865013e+01  1.256484e+01  1.211082e+01
      vertex   1.165013e+01  1.313187e+01  1.237764e+01
    endloop
  endfacet
  facet normal  0.000000e+00  4.257800e-01 -9.048268e-01
    outer loop
      vertex   1.865013e+01  1.256484e+01  1.211082e+01
      vertex   1.165013e+01  1.256484e+01  1.211082e+01
      vertex   1.165013e+01  1.313187e+01  1.237764e+01
    endloop
  endfacet
  facet normal  0.000000e+00  1.873804e-01 -9.822874e-01
    outer loop
      vertex   1.865013e+01  1.374743e+01  1.249507e+01
      vertex   1.865013e+01  1.313187e+01  1.237764e+01
      vertex   1.165013e+01  1.374743e+01  1.249507e+01
    endloop
  endfacet
  facet normal  0.000000e+00  1.873804e-01 -9.822874e-01
    outer loop
      vertex   1.865013e+01  1.313187e+01  1.237764e+01
      vertex   1.165013e+01  1.313187e+01  1.237764e+01
      vertex   1.165013e+01  1.374743e+01  1.249507e+01
    endloop
  endfacet
  facet normal -0.000000e+00 -6.279042e-02 -9.980267e-01
    outer loop
      vertex   1.865013e+01  1.437286e+01  1.245572e+01
      vertex   1.865013e+01  1.374743e+01  1.249507e+01
      vertex   1.165013e+01  1.437286e+01  1.245572e+01
    endloop
  endfacet
  facet normal -0.000000e+00 -6.279042e-02 -9.980267e-01
    outer loop
      vertex   1.865013e+01  1.374743e+01  1.249507e+01
      vertex   1.165013e+01  1.374743e+01  1.249507e+01
      vertex   1.165013e+01  1.437286e+01  1.245572e+01
    endloop
  endfacet
  facet normal -0.000000e+00 -3.090166e-01 -9.510567e-01
    outer loop
      vertex   1.865013e+01  1.496886e+01  1.226207e+01
      vertex   1.865013e+01  1.437286e+01  1.245572e+01
      vertex   1.165013e+01  1.496886e+01  1.226207e+01
    endloop
  endfacet
  facet normal -0.000000e+00 -3.090166e-01 -9.510567e-01
    outer loop
      vertex   1.865013e+01  1.437286e+01  1.245572e+01
      vertex   1.165013e+01  1.437286e+01  1.245572e+01
      vertex   1.165013e+01  1.496886e+01  1.226207e+01
    endloop
  endfacet
  facet normal -0.000000e+00 -5.358272e-01 -8.443277e-01
    outer loop
      vertex   1.865013e+01  1.549797e+01  1.192628e+01
      vertex   1.865013e+01  1.496886e+01  1.226207e+01
      vertex   1.165013e+01  1.549797e+01  1.192628e+01
    endloop
  endfacet
  facet normal  0.000000e+00 -7.289681e-01 -6.845477e-01
    outer loop
      vertex   1.865013e+01  1.592695e+01  1.146946e+01
      vertex   1.865013e+01  1.549797e+01  1.192628e+01
      vertex   1.165013e+01  1.549797e+01  1.192628e+01
    endloop
  endfacet
  facet normal -0.000000e+00 -5.358272e-01 -8.443277e-01
    outer loop
      vertex   1.865013e+01  1.496886e+01  1.226207e+01
      vertex   1.165013e+01  1.496886e+01  1.226207e+01
      vertex   1.165013e+01  1.549797e+01  1.192628e+01
    endloop
  endfacet
  facet normal -0.000000e+00 -7.289681e-01 -6.845477e-01
    outer loop
      vertex   1.865013e+01  1.592695e+01  1.146946e+01
      vertex   1.165013e+01  1.549797e+01  1.192628e+01
      vertex   1.165013e+01  1.592695e+01  1.146946e+01
    endloop
  endfacet
  facet normal -0.000000e+00 -8.763074e-01 -4.817524e-01
    outer loop
      vertex   1.865013e+01  1.622885e+01  1.092031e+01
      vertex   1.865013e+01  1.592695e+01  1.146946e+01
      vertex   1.165013e+01  1.622885e+01  1.092031e+01
    endloop
  endfacet
  facet normal -0.000000e+00 -8.763074e-01 -4.817524e-01
    outer loop
      vertex   1.865013e+01  1.592695e+01  1.146946e+01
      vertex   1.165013e+01  1.592695e+01  1.146946e+01
      vertex   1.165013e+01  1.622885e+01  1.092031e+01
    endloop
  endfacet
  facet normal -0.000000e+00 -9.685830e-01 -2.486904e-01
    outer loop
      vertex   1.865013e+01  1.622885e+01  1.092031e+01
      vertex   1.165013e+01  1.622885e+01  1.092031e+01
      vertex   1.165013e+01  1.638470e+01  1.031333e+01
    endloop
  endfacet
  facet normal -0.000000e+00 -9.685830e-01 -2.486904e-01
    outer loop
      vertex   1.865013e+01  1.638470e+01  1.031333e+01
      vertex   1.865013e+01  1.622885e+01  1.092031e+01
      vertex   1.165013e+01  1.638470e+01  1.031333e+01
    endloop
  endfacet
  facet normal  0.000000e+00 -1.000000e+00  0.000000e+00
    outer loop
      vertex   1.865013e+01  1.638470e+01  9.686666e+00
      vertex   1.865013e+01  1.638470e+01  1.031333e+01
      vertex   1.165013e+01  1.638470e+01  1.031333e+01
    endloop
  endfacet
  facet normal  0.000000e+00 -1.000000e+00  0.000000e+00
    outer loop
      vertex   1.865013e+01  1.638470e+01  9.686666e+00
      vertex   1.165013e+01  1.638470e+01  1.031333e+01
      vertex   1.165013e+01  1.638470e+01  9.686666e+00
    endloop
  endfacet
  facet normal  0.000000e+00 -9.685830e-01  2.486904e-01
    outer loop
      vertex   1.865013e+01  1.638470e+01  9.686666e+00
      vertex   1.165013e+01  1.638470e+01  9.686666e+00
      vertex   1.165013e+01  1.622885e+01  9.079689e+00
    endloop
  endfacet
  facet normal  0.000000e+00 -9.685830e-01  2.486904e-01
    outer loop
      vertex   1.865013e+01  1.622885e+01  9.079689e+00
      vertex   1.865013e+01  1.638470e+01  9.686666e+00
      vertex   1.165013e+01  1.622885e+01  9.079689e+00
    endloop
  endfacet
  facet normal  0.000000e+00 -8.763074e-01  4.817524e-01
    outer loop
      vertex   1.865013e+01  1.622885e+01  9.079689e+00
      vertex   1.165013e+01  1.622885e+01  9.079689e+00
      vertex   1.165013e+01  1.592695e+01  8.530537e+00
    endloop
  endfacet
  facet normal  0.000000e+00 -8.763074e-01  4.817524e-01
    outer loop
      vertex   1.865013e+01  1.592695e+01  8.530537e+00
      vertex   1.865013e+01  1.622885e+01  9.079689e+00
      vertex   1.165013e+01  1.592695e+01  8.530537e+00
    endloop
  endfacet
  facet normal  0.000000e+00 -7.289681e-01  6.845477e-01
    outer loop
      vertex   1.865013e+01  1.549797e+01  8.073717e+00
      vertex   1.865013e+01  1.592695e+01  8.530537e+00
      vertex   1.165013e+01  1.592695e+01  8.530537e+00
    endloop
  endfacet
  facet normal  0.000000e+00 -7.289681e-01  6.845477e-01
    outer loop
      vertex   1.865013e+01  1.549797e+01  8.073717e+00
      vertex   1.165013e+01  1.592695e+01  8.530537e+00
      vertex   1.165013e+01  1.549797e+01  8.073717e+00
    endloop
  endfacet
  facet normal  0.000000e+00 -5.358272e-01  8.443277e-01
    outer loop
      vertex   1.865013e+01  1.549797e+01  8.073717e+00
      vertex   1.165013e+01  1.549797e+01  8.073717e+00
      vertex   1.165013e+01  1.496886e+01  7.737932e+00
    endloop
  endfacet
  facet normal  0.000000e+00 -5.358272e-01  8.443277e-01
    outer loop
      vertex   1.865013e+01  1.496886e+01  7.737932e+00
      vertex   1.865013e+01  1.549797e+01  8.073717e+00
      vertex   1.165013e+01  1.496886e+01  7.737932e+00
    endloop
  endfacet
  facet normal  0.000000e+00 -3.090166e-01  9.510567e-01
    outer loop
      vertex   1.865013e+01  1.496886e+01  7.737932e+00
      vertex   1.165013e+01  1.496886e+01  7.737932e+00
      vertex   1.165013e+01  1.437286e+01  7.544282e+00
    endloop
  endfacet
  facet normal  0.000000e+00 -3.090166e-01  9.510567e-01
    outer loop
      vertex   1.865013e+01  1.437286e+01  7.544282e+00
      vertex   1.865013e+01  1.496886e+01  7.737932e+00
      vertex   1.165013e+01  1.437286e+01  7.544282e+00
    endloop
  endfacet
  facet normal  0.000000e+00 -6.279042e-02  9.980267e-01
    outer loop
      vertex   1.865013e+01  1.374743e+01  7.504933e+00
      vertex   1.865013e+01  1.437286e+01  7.544282e+00
      vertex   1.165013e+01  1.437286e+01  7.544282e+00
    endloop
  endfacet
  facet normal  0.000000e+00 -6.279042e-02  9.980267e-01
    outer loop
      vertex   1.865013e+01  1.374743e+01  7.504933e+00
      vertex   1.165013e+01  1.437286e+01  7.544282e+00
      vertex   1.165013e+01  1.374743e+01  7.504933e+00
    endloop
  endfacet
  facet normal  0.000000e+00  0.000000e+00 -1.000000e+00
    outer loop
      vertex   3.865014e+01  5.904409e+00  1.775000e+01
      vertex   2.365013e+01  5.904409e+00  1.775000e+01
      vertex   2.365013e+01  1.140441e+01  1.775000e+01
    endloop
  endfacet
  facet normal -0.000000e+00 -0.000000e+00 -1.000000e+00
    outer loop
      vertex   3.865014e+01  1.140441e+01  1.775000e+01
      vertex   3.865014e+01  5.904409e+00  1.775000e+01
      vertex   2.365013e+01  1.140441e+01  1.775000e+01
    endloop
  endfacet
  facet normal  0.000000e+00  1.000000e+00  0.000000e+00
    outer loop
      vertex   3.865014e+01  5.904409e+00  1.775000e+01
      vertex   3.865014e+01  5.904409e+00  2.250000e+00
      vertex   2.365013e+01  5.904409e+00  2.250000e+00
    endloop
  endfacet
  facet normal  0.000000e+00  1.000000e+00  0.000000e+00
    outer loop
      vertex   3.865014e+01  5.904409e+00  1.775000e+01
      vertex   2.365013e+01  5.904409e+00  2.250000e+00
      vertex   2.365013e+01  5.904409e+00  1.775000e+01
    endloop
  endfacet
  facet normal  0.000000e+00  0.000000e+00  1.000000e+00
    outer loop
      vertex   3.865014e+01  1.140441e+01  2.250000e+00
      vertex   2.365013e+01  1.140441e+01  2.250000e+00
      vertex   2.365013e+01  5.904409e+00  2.250000e+00
    endloop
  endfacet
  facet normal  0.000000e+00 -0.000000e+00  1.000000e+00
    outer loop
      vertex   3.865014e+01  5.904409e+00  2.250000e+00
      vertex   3.865014e+01  1.140441e+01  2.250000e+00
      vertex   2.365013e+01  5.904409e+00  2.250000e+00
    endloop
  endfacet
  facet normal  0.000000e+00 -1.000000e+00  0.000000e+00
    outer loop
      vertex   3.865014e+01  1.140441e+01  2.250000e+00
      vertex   3.865014e+01  1.140441e+01  1.775000e+01
      vertex   2.365013e+01  1.140441e+01  1.775000e+01
    endloop
  endfacet
  facet normal  0.000000e+00 -1.000000e+00  0.000000e+00
    outer loop
      vertex   3.865014e+01  1.140441e+01  2.250000e+00
      vertex   2.365013e+01  1.140441e+01  1.775000e+01
      vertex   2.365013e+01  1.140441e+01  2.250000e+00
    endloop
  endfacet
  facet normal -1.000000e+00 -0.000000e+00  0.000000e+00
    outer loop
      vertex   1.865013e+01  1.592695e+01  8.530537e+00
      vertex   1.865013e+01  1.549797e+01  8.073717e+00
      vertex   1.865013e+01  1.622885e+01  9.079689e+00
    endloop
  endfacet
  facet normal -1.000000e+00  0.000000e+00  0.000000e+00
    outer loop
      vertex   1.865013e+01  1.549797e+01  8.073717e+00
      vertex   1.865013e+01  1.496886e+01  7.737932e+00
      vertex   1.865013e+01  1.437286e+01  7.544282e+00
    endloop
  endfacet
  facet normal -1.000000e+00  0.000000e+00  0.000000e+00
    outer loop
      vertex   1.865013e+01  1.549797e+01  8.073717e+00
      vertex   1.865013e+01  1.437286e+01  7.544282e+00
      vertex   1.865013e+01  1.374743e+01  7.504933e+00
    endloop
  endfacet
  facet normal -1.000000e+00 -0.000000e+00 -0.000000e+00
    outer loop
      vertex   1.865013e+01  1.638470e+01  1.031333e+01
      vertex   1.865013e+01  1.638470e+01  9.686666e+00
      vertex   1.865013e+01  1.622885e+01  1.092031e+01
    endloop
  endfacet
  facet normal -1.000000e+00 -0.000000e+00  0.000000e+00
    outer loop
      vertex   1.865013e+01  1.638470e+01  9.686666e+00
      vertex   1.865013e+01  1.622885e+01  9.079689e+00
      vertex   1.865013e+01  1.622885e+01  1.092031e+01
    endloop
  endfacet
  facet normal -1.000000e+00  0.000000e+00  0.000000e+00
    outer loop
      vertex   1.865013e+01  1.374743e+01  7.504933e+00
      vertex   1.865013e+01  1.313187e+01  7.622359e+00
      vertex   1.865013e+01  1.256484e+01  7.889180e+00
    endloop
  endfacet
  facet normal -1.000000e+00 -0.000000e+00  0.000000e+00
    outer loop
      vertex   1.865013e+01  1.549797e+01  8.073717e+00
      vertex   1.865013e+01  1.374743e+01  7.504933e+00
      vertex   1.865013e+01  1.208199e+01  8.288632e+00
    endloop
  endfacet
  facet normal -1.000000e+00  0.000000e+00  0.000000e+00
    outer loop
      vertex   1.865013e+01  1.374743e+01  7.504933e+00
      vertex   1.865013e+01  1.256484e+01  7.889180e+00
      vertex   1.865013e+01  1.208199e+01  8.288632e+00
    endloop
  endfacet
  facet normal -1.000000e+00 -0.000000e+00 -0.000000e+00
    outer loop
      vertex   1.865013e+01  1.592695e+01  1.146946e+01
      vertex   1.865013e+01  1.622885e+01  1.092031e+01
      vertex   1.865013e+01  1.549797e+01  1.192628e+01
    endloop
  endfacet
  facet normal -1.000000e+00  0.000000e+00  0.000000e+00
    outer loop
      vertex   1.865013e+01  1.208199e+01  8.288632e+00
      vertex   1.865013e+01  1.171364e+01  8.795616e+00
      vertex   1.865013e+01  1.148295e+01  9.378275e+00
    endloop
  endfacet
  facet normal -1.000000e+00 -0.000000e+00  0.000000e+00
    outer loop
      vertex   1.865013e+01  1.622885e+01  9.079689e+00
      vertex   1.865013e+01  1.549797e+01  8.073717e+00
      vertex   1.865013e+01  1.148295e+01  9.378275e+00
    endloop
  endfacet
  facet normal -1.000000e+00  0.000000e+00  0.000000e+00
    outer loop
      vertex   1.865013e+01  1.549797e+01  8.073717e+00
      vertex   1.865013e+01  1.208199e+01  8.288632e+00
      vertex   1.865013e+01  1.148295e+01  9.378275e+00
    endloop
  endfacet
  facet normal -1.000000e+00 -0.000000e+00 -0.000000e+00
    outer loop
      vertex   1.865013e+01  1.437286e+01  1.245572e+01
      vertex   1.865013e+01  1.496886e+01  1.226207e+01
      vertex   1.865013e+01  1.374743e+01  1.249507e+01
    endloop
  endfacet
  facet normal -1.000000e+00 -0.000000e+00 -0.000000e+00
    outer loop
      vertex   1.865013e+01  1.496886e+01  1.226207e+01
      vertex   1.865013e+01  1.549797e+01  1.192628e+01
      vertex   1.865013e+01  1.374743e+01  1.249507e+01
    endloop
  endfacet
  facet normal -1.000000e+00 -0.000000e+00 -0.000000e+00
    outer loop
      vertex   1.865013e+01  1.622885e+01  1.092031e+01
      vertex   1.865013e+01  1.622885e+01  9.079689e+00
      vertex   1.865013e+01  1.374743e+01  1.249507e+01
    endloop
  endfacet
  facet normal -1.000000e+00 -0.000000e+00 -0.000000e+00
    outer loop
      vertex   1.865013e+01  1.549797e+01  1.192628e+01
      vertex   1.865013e+01  1.622885e+01  1.092031e+01
      vertex   1.865013e+01  1.374743e+01  1.249507e+01
    endloop
  endfacet
  facet normal -1.000000e+00  0.000000e+00  0.000000e+00
    outer loop
      vertex   1.865013e+01  1.622885e+01  9.079689e+00
      vertex   1.865013e+01  1.148295e+01  9.378275e+00
      vertex   1.865013e+01  1.374743e+01  1.249507e+01
    endloop
  endfacet
  facet normal -1.000000e+00  0.000000e+00  0.000000e+00
    outer loop
      vertex   1.865013e+01  1.148295e+01  9.378275e+00
      vertex   1.865013e+01  1.140441e+01  1.000000e+01
      vertex   1.865013e+01  1.148295e+01  1.062173e+01
    endloop
  endfacet
  facet normal -1.000000e+00  0.000000e+00  0.000000e+00
    outer loop
      vertex   1.865013e+01  1.374743e+01  1.249507e+01
      vertex   1.865013e+01  1.148295e+01  9.378275e+00
      vertex   1.865013e+01  1.148295e+01  1.062173e+01
    endloop
  endfacet
  facet normal -1.000000e+00  0.000000e+00 -0.000000e+00
    outer loop
      vertex   1.865013e+01  1.313187e+01  1.237764e+01
      vertex   1.865013e+01  1.374743e+01  1.249507e+01
      vertex   1.865013e+01  1.256484e+01  1.211082e+01
    endloop
  endfacet
  facet normal -1.000000e+00  0.000000e+00  0.000000e+00
    outer loop
      vertex   1.865013e+01  1.374743e+01  1.249507e+01
      vertex   1.865013e+01  1.148295e+01  1.062173e+01
      vertex   1.865013e+01  1.256484e+01  1.211082e+01
    endloop
  endfacet
  facet normal -1.000000e+00  0.000000e+00  0.000000e+00
    outer loop
      vertex   1.865013e+01  1.148295e+01  1.062173e+01
      vertex   1.865013e+01  1.171364e+01  1.120438e+01
      vertex   1.865013e+01  1.208199e+01  1.171137e+01
    endloop
  endfacet
  facet normal -1.000000e+00  0.000000e+00  0.000000e+00
    outer loop
      vertex   1.865013e+01  1.256484e+01  1.211082e+01
      vertex   1.865013e+01  1.148295e+01  1.062173e+01
      vertex   1.865013e+01  1.208199e+01  1.171137e+01
    endloop
  endfacet
  facet normal  1.000000e+00 -0.000000e+00  0.000000e+00
    outer loop
      vertex   2.365013e+01  5.904409e+00  1.775000e+01
      vertex   2.365013e+01  1.140441e+01  2.250000e+00
      vertex   2.365013e+01  1.140441e+01  1.775000e+01
    endloop
  endfacet
  facet normal  1.000000e+00  0.000000e+00  0.000000e+00
    outer loop
      vertex   2.365013e+01  5.904409e+00  1.775000e+01
      vertex   2.365013e+01  5.904409e+00  2.250000e+00
      vertex   2.365013e+01  1.140441e+01  2.250000e+00
    endloop
  endfacet
endsolid vcg
