<?xml version="1.0" encoding="UTF-8" standalone="no"?>
<svg
   xmlns:dc="http://purl.org/dc/elements/1.1/"
   xmlns:cc="http://creativecommons.org/ns#"
   xmlns:rdf="http://www.w3.org/1999/02/22-rdf-syntax-ns#"
   xmlns:svg="http://www.w3.org/2000/svg"
   xmlns="http://www.w3.org/2000/svg"
   xmlns:sodipodi="http://sodipodi.sourceforge.net/DTD/sodipodi-0.dtd"
   xmlns:inkscape="http://www.inkscape.org/namespaces/inkscape"
   width="234.6mm"
   height="114.6mm"
   viewBox="0 0 234.6 114.6"
   version="1.1"
   id="svg2"
   inkscape:version="0.48.4 r9939"
   sodipodi:docname="Roboter_Grundplatte.svg">
  <metadata
     id="metadata73">
    <rdf:RDF>
      <cc:Work
         rdf:about="">
        <dc:format>image/svg+xml</dc:format>
        <dc:type
           rdf:resource="http://purl.org/dc/dcmitype/StillImage" />
      </cc:Work>
    </rdf:RDF>
  </metadata>
  <defs
     id="defs71" />
  <sodipodi:namedview
     pagecolor="#ffffff"
     bordercolor="#666666"
     borderopacity="1"
     objecttolerance="10"
     gridtolerance="10"
     guidetolerance="10"
     inkscape:pageopacity="0"
     inkscape:pageshadow="2"
     inkscape:window-width="640"
     inkscape:window-height="480"
     id="namedview69"
     showgrid="false"
     inkscape:zoom="0.52931701"
     inkscape:cx="439.83873"
     inkscape:cy="181.68726"
     inkscape:window-x="0"
     inkscape:window-y="25"
     inkscape:window-maximized="0"
     inkscape:current-layer="svg2" />
  <g
     transform="matrix(1,0,0,-1,2.3,112.30273)"
     id="g4">
    <path
       id="Sketch"
       d="m 220,0 a 10,10 0 0 1 10,10 l 0,90 a 10,10 0 0 1 -10,10 L 10,110 A 10,10 0 0 1 0,100 L 0,10 A 10,10 0 0 1 10,0 l 210,0"
       style="fill:none;stroke:#000000;stroke-width:0.34999999;stroke-miterlimit:4;stroke-dasharray:none"
       inkscape:connector-curvature="0" />
    <circle
       cx="10"
       cy="100"
       r="1.5"
       style="fill:none;stroke:#000000;stroke-width:0.34999999;stroke-miterlimit:4;stroke-dasharray:none"
       id="circle7"
       d="m 11.5,100 c 0,0.82843 -0.671573,1.5 -1.5,1.5 -0.8284271,0 -1.5,-0.67157 -1.5,-1.5 0,-0.828427 0.6715729,-1.5 1.5,-1.5 0.828427,0 1.5,0.671573 1.5,1.5 z"
       sodipodi:cx="10"
       sodipodi:cy="100"
       sodipodi:rx="1.5"
       sodipodi:ry="1.5" />
    <circle
       cx="10"
       cy="10"
       r="1.5"
       style="fill:none;stroke:#000000;stroke-width:0.34999999;stroke-miterlimit:4;stroke-dasharray:none"
       id="circle9"
       d="m 11.5,10 c 0,0.828427 -0.671573,1.5 -1.5,1.5 -0.8284271,0 -1.5,-0.671573 -1.5,-1.5 0,-0.8284271 0.6715729,-1.5 1.5,-1.5 0.828427,0 1.5,0.6715729 1.5,1.5 z"
       sodipodi:cx="10"
       sodipodi:cy="10"
       sodipodi:rx="1.5"
       sodipodi:ry="1.5" />
    <circle
       cx="160"
       cy="100"
       r="1.5"
       style="fill:none;stroke:#000000;stroke-width:0.34999999;stroke-miterlimit:4;stroke-dasharray:none"
       id="circle11"
       d="m 161.5,100 c 0,0.82843 -0.67157,1.5 -1.5,1.5 -0.82843,0 -1.5,-0.67157 -1.5,-1.5 0,-0.828427 0.67157,-1.5 1.5,-1.5 0.82843,0 1.5,0.671573 1.5,1.5 z"
       sodipodi:cx="160"
       sodipodi:cy="100"
       sodipodi:rx="1.5"
       sodipodi:ry="1.5" />
    <circle
       cx="160"
       cy="10"
       r="1.5"
       style="fill:none;stroke:#000000;stroke-width:0.34999999;stroke-miterlimit:4;stroke-dasharray:none"
       id="circle13"
       d="m 161.5,10 c 0,0.828427 -0.67157,1.5 -1.5,1.5 -0.82843,0 -1.5,-0.671573 -1.5,-1.5 0,-0.8284271 0.67157,-1.5 1.5,-1.5 0.82843,0 1.5,0.6715729 1.5,1.5 z"
       sodipodi:cx="160"
       sodipodi:cy="10"
       sodipodi:rx="1.5"
       sodipodi:ry="1.5" />
    <circle
       cx="180"
       cy="100"
       r="1.5"
       style="fill:none;stroke:#000000;stroke-width:0.34999999;stroke-miterlimit:4;stroke-dasharray:none"
       id="circle15"
       d="m 181.5,100 c 0,0.82843 -0.67157,1.5 -1.5,1.5 -0.82843,0 -1.5,-0.67157 -1.5,-1.5 0,-0.828427 0.67157,-1.5 1.5,-1.5 0.82843,0 1.5,0.671573 1.5,1.5 z"
       sodipodi:cx="180"
       sodipodi:cy="100"
       sodipodi:rx="1.5"
       sodipodi:ry="1.5" />
    <circle
       cx="210"
       cy="100"
       r="1.5"
       style="fill:none;stroke:#000000;stroke-width:0.34999999;stroke-miterlimit:4;stroke-dasharray:none"
       id="circle17"
       d="m 211.5,100 c 0,0.82843 -0.67157,1.5 -1.5,1.5 -0.82843,0 -1.5,-0.67157 -1.5,-1.5 0,-0.828427 0.67157,-1.5 1.5,-1.5 0.82843,0 1.5,0.671573 1.5,1.5 z"
       sodipodi:cx="210"
       sodipodi:cy="100"
       sodipodi:rx="1.5"
       sodipodi:ry="1.5" />
    <circle
       cx="210"
       cy="70"
       r="1.5"
       style="fill:none;stroke:#000000;stroke-width:0.34999999;stroke-miterlimit:4;stroke-dasharray:none"
       id="circle19"
       d="m 211.5,70 c 0,0.828427 -0.67157,1.5 -1.5,1.5 -0.82843,0 -1.5,-0.671573 -1.5,-1.5 0,-0.828427 0.67157,-1.5 1.5,-1.5 0.82843,0 1.5,0.671573 1.5,1.5 z"
       sodipodi:cx="210"
       sodipodi:cy="70"
       sodipodi:rx="1.5"
       sodipodi:ry="1.5" />
    <circle
       cx="180"
       cy="70"
       r="1.5"
       style="fill:none;stroke:#000000;stroke-width:0.34999999;stroke-miterlimit:4;stroke-dasharray:none"
       id="circle21"
       d="m 181.5,70 c 0,0.828427 -0.67157,1.5 -1.5,1.5 -0.82843,0 -1.5,-0.671573 -1.5,-1.5 0,-0.828427 0.67157,-1.5 1.5,-1.5 0.82843,0 1.5,0.671573 1.5,1.5 z"
       sodipodi:cx="180"
       sodipodi:cy="70"
       sodipodi:rx="1.5"
       sodipodi:ry="1.5" />
    <circle
       cx="170"
       cy="10"
       r="1.5"
       style="fill:none;stroke:#000000;stroke-width:0.34999999;stroke-miterlimit:4;stroke-dasharray:none"
       id="circle23"
       d="m 171.5,10 c 0,0.828427 -0.67157,1.5 -1.5,1.5 -0.82843,0 -1.5,-0.671573 -1.5,-1.5 0,-0.8284271 0.67157,-1.5 1.5,-1.5 0.82843,0 1.5,0.6715729 1.5,1.5 z"
       sodipodi:cx="170"
       sodipodi:cy="10"
       sodipodi:rx="1.5"
       sodipodi:ry="1.5" />
    <circle
       cx="216.66905"
       cy="56.669048"
       r="1.5"
       style="fill:none;stroke:#000000;stroke-width:0.34999999;stroke-miterlimit:4;stroke-dasharray:none"
       id="circle25"
       d="m 218.16905,56.669048 c 0,0.828427 -0.67157,1.5 -1.5,1.5 -0.82843,0 -1.5,-0.671573 -1.5,-1.5 0,-0.828427 0.67157,-1.5 1.5,-1.5 0.82843,0 1.5,0.671573 1.5,1.5 z"
       sodipodi:cx="216.66905"
       sodipodi:cy="56.669048"
       sodipodi:rx="1.5"
       sodipodi:ry="1.5" />
    <circle
       cx="70"
       cy="90"
       r="1.5"
       style="fill:none;stroke:#000000;stroke-width:0.34999999;stroke-miterlimit:4;stroke-dasharray:none"
       id="circle27"
       d="m 71.5,90 c 0,0.828427 -0.671573,1.5 -1.5,1.5 -0.828427,0 -1.5,-0.671573 -1.5,-1.5 0,-0.828427 0.671573,-1.5 1.5,-1.5 0.828427,0 1.5,0.671573 1.5,1.5 z"
       sodipodi:cx="70"
       sodipodi:cy="90"
       sodipodi:rx="1.5"
       sodipodi:ry="1.5" />
    <circle
       cx="70"
       cy="20"
       r="1.5"
       style="fill:none;stroke:#000000;stroke-width:0.34999999;stroke-miterlimit:4;stroke-dasharray:none"
       id="circle29"
       d="m 71.5,20 c 0,0.828427 -0.671573,1.5 -1.5,1.5 -0.828427,0 -1.5,-0.671573 -1.5,-1.5 0,-0.828427 0.671573,-1.5 1.5,-1.5 0.828427,0 1.5,0.671573 1.5,1.5 z"
       sodipodi:cx="70"
       sodipodi:cy="20"
       sodipodi:rx="1.5"
       sodipodi:ry="1.5" />
    <circle
       cx="135"
       cy="90"
       r="1.5"
       style="fill:none;stroke:#000000;stroke-width:0.34999999;stroke-miterlimit:4;stroke-dasharray:none"
       id="circle31"
       d="m 136.5,90 c 0,0.828427 -0.67157,1.5 -1.5,1.5 -0.82843,0 -1.5,-0.671573 -1.5,-1.5 0,-0.828427 0.67157,-1.5 1.5,-1.5 0.82843,0 1.5,0.671573 1.5,1.5 z"
       sodipodi:cx="135"
       sodipodi:cy="90"
       sodipodi:rx="1.5"
       sodipodi:ry="1.5" />
    <circle
       cx="135"
       cy="20"
       r="1.5"
       style="fill:none;stroke:#000000;stroke-width:0.34999999;stroke-miterlimit:4;stroke-dasharray:none"
       id="circle33"
       d="m 136.5,20 c 0,0.828427 -0.67157,1.5 -1.5,1.5 -0.82843,0 -1.5,-0.671573 -1.5,-1.5 0,-0.828427 0.67157,-1.5 1.5,-1.5 0.82843,0 1.5,0.671573 1.5,1.5 z"
       sodipodi:cx="135"
       sodipodi:cy="20"
       sodipodi:rx="1.5"
       sodipodi:ry="1.5" />
    <circle
       cx="10"
       cy="60"
       r="1.5"
       style="fill:none;stroke:#000000;stroke-width:0.34999999;stroke-miterlimit:4;stroke-dasharray:none"
       id="circle35"
       d="m 11.5,60 c 0,0.828427 -0.671573,1.5 -1.5,1.5 -0.8284271,0 -1.5,-0.671573 -1.5,-1.5 0,-0.828427 0.6715729,-1.5 1.5,-1.5 0.828427,0 1.5,0.671573 1.5,1.5 z"
       sodipodi:cx="10"
       sodipodi:cy="60"
       sodipodi:rx="1.5"
       sodipodi:ry="1.5" />
    <circle
       cx="10"
       cy="50"
       r="1.5"
       style="fill:none;stroke:#000000;stroke-width:0.34999999;stroke-miterlimit:4;stroke-dasharray:none"
       id="circle37"
       d="m 11.5,50 c 0,0.828427 -0.671573,1.5 -1.5,1.5 -0.8284271,0 -1.5,-0.671573 -1.5,-1.5 0,-0.828427 0.6715729,-1.5 1.5,-1.5 0.828427,0 1.5,0.671573 1.5,1.5 z"
       sodipodi:cx="10"
       sodipodi:cy="50"
       sodipodi:rx="1.5"
       sodipodi:ry="1.5" />
    <circle
       cx="10"
       cy="40"
       r="1.5"
       style="fill:none;stroke:#000000;stroke-width:0.34999999;stroke-miterlimit:4;stroke-dasharray:none"
       id="circle39"
       d="m 11.5,40 c 0,0.828427 -0.671573,1.5 -1.5,1.5 -0.8284271,0 -1.5,-0.671573 -1.5,-1.5 0,-0.828427 0.6715729,-1.5 1.5,-1.5 0.828427,0 1.5,0.671573 1.5,1.5 z"
       sodipodi:cx="10"
       sodipodi:cy="40"
       sodipodi:rx="1.5"
       sodipodi:ry="1.5" />
    <circle
       cx="10"
       cy="70"
       r="1.5"
       style="fill:none;stroke:#000000;stroke-width:0.34999999;stroke-miterlimit:4;stroke-dasharray:none"
       id="circle41"
       d="m 11.5,70 c 0,0.828427 -0.671573,1.5 -1.5,1.5 -0.8284271,0 -1.5,-0.671573 -1.5,-1.5 0,-0.828427 0.6715729,-1.5 1.5,-1.5 0.828427,0 1.5,0.671573 1.5,1.5 z"
       sodipodi:cx="10"
       sodipodi:cy="70"
       sodipodi:rx="1.5"
       sodipodi:ry="1.5" />
    <circle
       cx="130"
       cy="70"
       r="1.5"
       style="fill:none;stroke:#000000;stroke-width:0.34999999;stroke-miterlimit:4;stroke-dasharray:none"
       id="circle43"
       d="m 131.5,70 c 0,0.828427 -0.67157,1.5 -1.5,1.5 -0.82843,0 -1.5,-0.671573 -1.5,-1.5 0,-0.828427 0.67157,-1.5 1.5,-1.5 0.82843,0 1.5,0.671573 1.5,1.5 z"
       sodipodi:cx="130"
       sodipodi:cy="70"
       sodipodi:rx="1.5"
       sodipodi:ry="1.5" />
    <circle
       cx="130"
       cy="40"
       r="1.5"
       style="fill:none;stroke:#000000;stroke-width:0.34999999;stroke-miterlimit:4;stroke-dasharray:none"
       id="circle45"
       d="m 131.5,40 c 0,0.828427 -0.67157,1.5 -1.5,1.5 -0.82843,0 -1.5,-0.671573 -1.5,-1.5 0,-0.828427 0.67157,-1.5 1.5,-1.5 0.82843,0 1.5,0.671573 1.5,1.5 z"
       sodipodi:cx="130"
       sodipodi:cy="40"
       sodipodi:rx="1.5"
       sodipodi:ry="1.5" />
    <circle
       cx="170"
       cy="40"
       r="1.5"
       style="fill:none;stroke:#000000;stroke-width:0.34999999;stroke-miterlimit:4;stroke-dasharray:none"
       id="circle47"
       d="m 171.5,40 c 0,0.828427 -0.67157,1.5 -1.5,1.5 -0.82843,0 -1.5,-0.671573 -1.5,-1.5 0,-0.828427 0.67157,-1.5 1.5,-1.5 0.82843,0 1.5,0.671573 1.5,1.5 z"
       sodipodi:cx="170"
       sodipodi:cy="40"
       sodipodi:rx="1.5"
       sodipodi:ry="1.5" />
    <circle
       cx="170"
       cy="70"
       r="1.5"
       style="fill:none;stroke:#000000;stroke-width:0.34999999;stroke-miterlimit:4;stroke-dasharray:none"
       id="circle49"
       d="m 171.5,70 c 0,0.828427 -0.67157,1.5 -1.5,1.5 -0.82843,0 -1.5,-0.671573 -1.5,-1.5 0,-0.828427 0.67157,-1.5 1.5,-1.5 0.82843,0 1.5,0.671573 1.5,1.5 z"
       sodipodi:cx="170"
       sodipodi:cy="70"
       sodipodi:rx="1.5"
       sodipodi:ry="1.5" />
    <path
       id="path51"
       d="m 20,90 40,0 0,-70 -40,0 0,70"
       style="fill:none;stroke:#000000;stroke-width:0.34999999;stroke-miterlimit:4;stroke-dasharray:none"
       inkscape:connector-curvature="0" />
    <path
       id="path53"
       d="m 80,100 40,0 0,-90 -40,0 0,90"
       style="fill:none;stroke:#000000;stroke-width:0.34999999;stroke-miterlimit:4;stroke-dasharray:none"
       inkscape:connector-curvature="0" />
    <path
       id="path55"
       d="m 140,90 20,0 0,-70 -20,0 0,70"
       style="fill:none;stroke:#000000;stroke-width:0.34999999;stroke-miterlimit:4;stroke-dasharray:none"
       inkscape:connector-curvature="0" />
    <path
       id="path57"
       d="m 170,65 20,0 0,-15 -20,0 0,15"
       style="fill:none;stroke:#000000;stroke-width:0.34999999;stroke-miterlimit:4;stroke-dasharray:none"
       inkscape:connector-curvature="0" />
    <path
       id="path59"
       d="m 185,95 20,0 0,-20 -20,0 0,20"
       style="fill:none;stroke:#000000;stroke-width:0.34999999;stroke-miterlimit:4;stroke-dasharray:none"
       inkscape:connector-curvature="0" />
    <circle
       cx="35"
       cy="5"
       r="1.5"
       style="fill:none;stroke:#000000;stroke-width:0.34999999;stroke-miterlimit:4;stroke-dasharray:none"
       id="circle61"
       d="m 36.5,5 c 0,0.8284271 -0.671573,1.5 -1.5,1.5 -0.828427,0 -1.5,-0.6715729 -1.5,-1.5 0,-0.8284271 0.671573,-1.5 1.5,-1.5 0.828427,0 1.5,0.6715729 1.5,1.5 z"
       sodipodi:cx="35"
       sodipodi:cy="5"
       sodipodi:rx="1.5"
       sodipodi:ry="1.5" />
    <circle
       cx="65"
       cy="5"
       r="1.5"
       style="fill:none;stroke:#000000;stroke-width:0.34999999;stroke-miterlimit:4;stroke-dasharray:none"
       id="circle63"
       d="m 66.5,5 c 0,0.8284271 -0.671573,1.5 -1.5,1.5 -0.828427,0 -1.5,-0.6715729 -1.5,-1.5 0,-0.8284271 0.671573,-1.5 1.5,-1.5 0.828427,0 1.5,0.6715729 1.5,1.5 z"
       sodipodi:cx="65"
       sodipodi:cy="5"
       sodipodi:rx="1.5"
       sodipodi:ry="1.5" />
    <circle
       cx="65"
       cy="105"
       r="1.5"
       style="fill:none;stroke:#000000;stroke-width:0.34999999;stroke-miterlimit:4;stroke-dasharray:none"
       id="circle65"
       d="m 66.5,105 c 0,0.82843 -0.671573,1.5 -1.5,1.5 -0.828427,0 -1.5,-0.67157 -1.5,-1.5 0,-0.82843 0.671573,-1.5 1.5,-1.5 0.828427,0 1.5,0.67157 1.5,1.5 z"
       sodipodi:cx="65"
       sodipodi:cy="105"
       sodipodi:rx="1.5"
       sodipodi:ry="1.5" />
    <circle
       cx="35"
       cy="105"
       r="1.5"
       style="fill:none;stroke:#000000;stroke-width:0.34999999;stroke-miterlimit:4;stroke-dasharray:none"
       id="circle67"
       d="m 36.5,105 c 0,0.82843 -0.671573,1.5 -1.5,1.5 -0.828427,0 -1.5,-0.67157 -1.5,-1.5 0,-0.82843 0.671573,-1.5 1.5,-1.5 0.828427,0 1.5,0.67157 1.5,1.5 z"
       sodipodi:cx="35"
       sodipodi:cy="105"
       sodipodi:rx="1.5"
       sodipodi:ry="1.5" />
  </g>
</svg>
